<?xml version="1.0" standalone="no"?>
<!DOCTYPE svg PUBLIC "-//W3C//DTD SVG 20010904//EN"
 "http://www.w3.org/TR/2001/REC-SVG-20010904/DTD/svg10.dtd">
<svg version="1.0" xmlns="http://www.w3.org/2000/svg"
 width="700.000000pt" height="700.000000pt" viewBox="0 0 700.000000 700.000000"
 preserveAspectRatio="xMidYMid meet">
<metadata>
Created by potrace 1.14, written by Peter Selinger 2001-2017
</metadata>
<g transform="translate(0.000000,700.000000) scale(0.100000,-0.100000)"
fill="#000000" stroke="none">
<path d="M3260 6539 c-590 -45 -1188 -282 -1660 -659 -131 -105 -362 -335
-461 -460 -381 -478 -598 -1011 -660 -1618 -17 -170 -6 -573 20 -746 28 -175
85 -403 146 -571 100 -280 301 -639 492 -875 94 -117 289 -316 403 -412 735
-618 1695 -852 2638 -642 245 54 565 176 786 300 256 142 465 301 677 513 245
245 422 490 573 791 218 437 316 857 316 1355 0 408 -67 762 -213 1125 -498
1237 -1723 1998 -3057 1899z m-563 -1865 c29 -18 43 -53 43 -104 0 -102 84
-226 188 -277 74 -36 191 -39 264 -6 103 47 179 148 200 264 11 63 44 108 82
111 74 5 121 -29 131 -96 19 -125 87 -221 193 -273 49 -24 69 -28 137 -27 165
1 285 102 320 268 17 83 35 111 79 126 27 9 41 8 69 -4 45 -18 63 -46 76 -118
27 -153 143 -258 301 -275 87 -9 125 -41 125 -108 0 -40 -5 -51 -33 -76 -26
-24 -41 -29 -82 -29 -126 0 -264 57 -361 150 l-63 59 -61 -58 c-112 -107 -246
-157 -400 -148 -145 8 -261 61 -361 164 l-44 45 -44 -45 c-100 -103 -216 -156
-361 -164 -154 -9 -288 41 -400 148 l-61 58 -63 -59 c-97 -93 -235 -150 -361
-150 -41 0 -56 5 -82 29 -28 25 -33 36 -33 76 0 67 38 99 126 108 84 9 157 46
213 108 47 52 86 138 87 192 2 111 91 167 176 111z m16 -914 c22 -24 27 -40
27 -80 0 -113 74 -227 183 -279 82 -40 139 -47 216 -27 135 35 224 131 250
271 14 75 32 101 79 116 75 22 142 -33 142 -118 0 -15 13 -55 29 -88 97 -203
346 -253 516 -104 50 44 83 105 99 181 17 82 29 104 68 124 72 37 137 -11 157
-117 14 -74 44 -129 97 -181 49 -50 107 -77 200 -93 86 -15 120 -39 130 -90 7
-42 -17 -90 -56 -110 -90 -47 -308 26 -426 142 l-55 54 -64 -60 c-71 -66 -176
-122 -263 -140 -171 -35 -350 18 -479 142 l-63 60 -63 -60 c-210 -202 -527
-203 -742 -2 l-64 60 -53 -53 c-116 -116 -338 -190 -428 -143 -39 20 -63 68
-56 110 10 51 45 75 130 90 170 30 273 134 297 302 11 80 22 101 62 119 46 21
97 11 130 -26z m0 -940 c22 -24 27 -40 27 -80 0 -164 151 -314 319 -314 90 -1
159 25 222 82 56 50 109 145 109 195 0 62 57 127 110 127 53 0 110 -65 110
-127 0 -50 53 -145 109 -195 190 -171 498 -61 537 192 10 66 31 100 71 116 75
32 133 -13 151 -114 27 -155 144 -262 302 -279 76 -8 118 -38 126 -93 6 -43
-24 -96 -64 -111 -39 -16 -146 -4 -223 24 -75 27 -185 100 -222 149 l-25 32
-64 -60 c-219 -204 -532 -205 -744 -3 l-64 62 -64 -62 c-212 -202 -525 -201
-744 3 l-64 60 -25 -32 c-37 -49 -147 -122 -222 -149 -77 -28 -184 -40 -223
-24 -40 15 -70 68 -64 110 8 54 44 83 117 93 172 23 286 134 310 303 11 82 22
103 62 121 46 21 97 11 130 -26z"/>
</g>
</svg>
