<svg fill="none" height="1024" viewBox="0 0 1024 1024" width="1024" xmlns="http://www.w3.org/2000/svg" xmlns:xlink="http://www.w3.org/1999/xlink"><mask id="a" height="888" maskUnits="userSpaceOnUse" width="888" x="68" y="66"><path d="m68.0002 510c0-245.206 198.7828-443.9998 443.9998-443.9998s444 198.7938 444 443.9998c0 245.218-198.783 444-444 444s-443.9998-198.782-443.9998-444z" fill="#fff"/></mask><path d="m68.0002 510c0-245.125 198.7598-444 443.9998-444 245.241 0 444 198.875 444 444 0 245.24-198.759 444-444 444-245.24 0-443.9998-198.76-443.9998-444z" fill="#008eba"/><g fill="#000" fill-opacity=".09" mask="url(#a)"><path d="m782.531 678.387c-91.953 159.266-338.651 188.995-551.016 66.386-212.3643-122.609-309.9672-351.12-218.015-510.386 91.957-159.2737 338.651-188.9955 551.015-66.387 212.365 122.609 309.972 351.113 218.016 510.387z"/><path d="m1010.53 234.387c91.95 159.266-5.65 387.777-218.015 510.386-212.364 122.609-459.063 92.88-551.015-66.386-91.957-159.274 5.651-387.778 218.015-510.387 212.365-122.6085 459.059-92.8867 551.015 66.387z"/></g><g fill="#fff"><path d="m496.476 624.956c.473-8.359 7.514-14.541 15.524-14.541 8.216 0 14.911 6.365 15.517 14.445l.001.015.001.015c1.786 25.093 22.819 44.747 47.968 44.747 25.04 0 46.082-19.645 47.869-44.747l.001-.015.001-.015c.606-8.08 7.301-14.445 15.517-14.445 8.249 0 15.005 6.298 15.616 14.445l.002.029.002.028c1.698 25.057 22.803 44.72 47.867 44.72 8.448 0 15.638 6.819 15.638 15.539 0 8.584-7.054 15.638-15.638 15.638-25.847 0-48.952-12.596-63.471-32.006-14.486 19.421-37.655 32.006-63.404 32.006-25.818 0-48.995-12.572-63.487-31.984-14.492 19.412-37.669 31.984-63.487 31.984-25.772 0-48.923-12.556-63.437-31.94-14.515 19.384-37.665 31.94-63.438 31.94-8.584 0-15.638-7.054-15.638-15.638 0-8.72 7.19-15.539 15.638-15.539 24.802 0 45.442-20.646 47.651-45.303v-2.844c0-20.644 31.574-20.662 31.574 0 0 1.56-.178 3.143-.178 4.35 1.958 24.381 22.911 43.797 47.828 43.797 25.127 0 46.145-19.62 47.963-44.681z"/><path d="m496.476 487.324c.473-8.36 7.514-14.542 15.524-14.542 8.216 0 14.911 6.365 15.517 14.445l.001.015.001.015c1.786 25.093 22.819 44.747 47.968 44.747 25.04 0 46.082-19.645 47.869-44.747l.001-.015.001-.015c.606-8.08 7.301-14.445 15.517-14.445 8.249 0 15.005 6.299 15.616 14.445l.002.029.002.028c1.698 25.057 22.803 44.72 47.867 44.72 8.448 0 15.638 6.819 15.638 15.539 0 8.585-7.054 15.638-15.638 15.638-25.847 0-48.952-12.596-63.471-32.006-14.486 19.421-37.655 32.006-63.404 32.006-25.818 0-48.995-12.572-63.487-31.984-14.492 19.412-37.669 31.984-63.487 31.984-25.772 0-48.923-12.555-63.437-31.94-14.515 19.385-37.665 31.94-63.438 31.94-8.584 0-15.638-7.053-15.638-15.638 0-8.72 7.19-15.539 15.638-15.539 24.802 0 45.442-20.646 47.651-45.303v-2.843c0-20.645 31.574-20.663 31.574 0 0 1.559-.178 3.142-.178 4.349 1.958 24.382 22.911 43.797 47.828 43.797 25.127 0 46.145-19.62 47.963-44.68z"/><path d="m496.476 355.956c.473-8.359 7.514-14.541 15.524-14.541 8.216 0 14.911 6.365 15.517 14.445l.001.015.001.015c1.786 25.093 22.819 44.747 47.968 44.747 25.04 0 46.082-19.645 47.869-44.747l.001-.015.001-.015c.606-8.08 7.301-14.445 15.517-14.445 8.249 0 15.005 6.298 15.616 14.445l.002.029.002.028c1.698 25.057 22.803 44.72 47.867 44.72 8.448 0 15.638 6.819 15.638 15.539 0 8.584-7.054 15.638-15.638 15.638-25.847 0-48.952-12.596-63.471-32.006-14.486 19.421-37.655 32.006-63.404 32.006-25.818 0-48.995-12.572-63.487-31.984-14.492 19.412-37.669 31.984-63.487 31.984-25.772 0-48.923-12.556-63.437-31.94-14.515 19.384-37.665 31.94-63.438 31.94-8.584 0-15.638-7.054-15.638-15.638 0-8.72 7.19-15.539 15.638-15.539 24.802 0 45.442-20.646 47.651-45.303v-2.844c0-20.644 31.574-20.662 31.574 0 0 1.56-.178 3.143-.178 4.35 1.958 24.381 22.911 43.797 47.828 43.797 25.127 0 46.145-19.62 47.963-44.681z"/></g></svg>