<svg viewBox="0 0 26.5 26.5" xmlns="http://www.w3.org/2000/svg" shape-rendering="crispEdges"><g fill="#006b9e"><path d="M0 0h1.1v1.1H0zm1.1 0h1.1v1.1H1.1z"/><path d="M2.1 0h1.1v1.1H2.1zm1.1 0h1.1v1.1H3.2z"/><path d="M4.2 0h1.1v1.1H4.2z"/><path d="M5.3 0h1.1v1.1H5.3z"/><path d="M6.3 0h1.1v1.1H6.3zm2.2 0h1.1v1.1H8.5zm3.1 0h1.1v1.1h-1.1zm1.1 0h1.1v1.1h-1.1zm2.1 0h1.1v1.1h-1.1zm2.1 0H18v1.1h-1.1zM19 0h1.1v1.1H19zm1.1 0h1.1v1.1h-1.1z"/><path d="M21.2 0h1.1v1.1h-1.1z"/><path d="M22.2 0h1.1v1.1h-1.1zm1.1 0h1.1v1.1h-1.1z"/><path d="M24.3 0h1.1v1.1h-1.1z"/><path d="M25.4 0h1.1v1.1h-1.1zM0 1.1h1.1v1.1H0zm6.3 0h1.1v1.1H6.3zm3.2 0h1.1v1.1H9.5zm1.1 0h1.1v1.1h-1.1z"/><path d="M11.6 1.1h1.1v1.1h-1.1zm1.1 0h1.1v1.1h-1.1zm2.1 0h1.1v1.1h-1.1zm4.2 0h1.1v1.1H19zm6.4 0h1.1v1.1h-1.1zM0 2.1h1.1v1.1H0zm2.1 0h1.1v1.1H2.1zm1.1 0h1.1v1.1H3.2z"/><path d="M4.2 2.1h1.1v1.1H4.2zm2.1 0h1.1v1.1H6.3zm2.2 0h1.1v1.1H8.5zm5.3 0h1.1v1.1h-1.1zm3.1 0H18v1.1h-1.1zm2.1 0h1.1v1.1H19zm2.2 0h1.1v1.1h-1.1z"/><path d="M22.2 2.1h1.1v1.1h-1.1zm1.1 0h1.1v1.1h-1.1zm2.1 0h1.1v1.1h-1.1zM0 3.2h1.1v1.1H0zm2.1 0h1.1v1.1H2.1zm1.1 0h1.1v1.1H3.2z"/><path d="M4.2 3.2h1.1v1.1H4.2zm2.1 0h1.1v1.1H6.3zm2.2 0h1.1v1.1H8.5z"/><path d="M9.5 3.2h1.1v1.1H9.5zm2.1 0h1.1v1.1h-1.1zm1.1 0h1.1v1.1h-1.1zm1.1 0h1.1v1.1h-1.1zm2.1 0H17v1.1h-1.1z"/><path d="M16.9 3.2H18v1.1h-1.1zm2.1 0h1.1v1.1H19zm2.2 0h1.1v1.1h-1.1z"/><path d="M22.2 3.2h1.1v1.1h-1.1zm1.1 0h1.1v1.1h-1.1zm2.1 0h1.1v1.1h-1.1zM0 4.2h1.1v1.1H0zm2.1 0h1.1v1.1H2.1zm1.1 0h1.1v1.1H3.2z"/><path d="M4.2 4.2h1.1v1.1H4.2zm2.1 0h1.1v1.1H6.3zm2.2 0h1.1v1.1H8.5z"/><path d="M9.5 4.2h1.1v1.1H9.5zm3.2 0h1.1v1.1h-1.1zm1.1 0h1.1v1.1h-1.1z"/><path d="M14.8 4.2h1.1v1.1h-1.1zm1.1 0H17v1.1h-1.1z"/><path d="M16.9 4.2H18v1.1h-1.1zm2.1 0h1.1v1.1H19zm2.2 0h1.1v1.1h-1.1z"/><path d="M22.2 4.2h1.1v1.1h-1.1zm1.1 0h1.1v1.1h-1.1zm2.1 0h1.1v1.1h-1.1zM0 5.3h1.1v1.1H0zm6.3 0h1.1v1.1H6.3zm3.2 0h1.1v1.1H9.5zm5.3 0h1.1v1.1h-1.1zm4.2 0h1.1v1.1H19z"/><path d="M25.4 5.3h1.1v1.1h-1.1zM0 6.3h1.1v1.1H0zm1.1 0h1.1v1.1H1.1z"/><path d="M2.1 6.3h1.1v1.1H2.1zm1.1 0h1.1v1.1H3.2z"/><path d="M4.2 6.3h1.1v1.1H4.2z"/><path d="M5.3 6.3h1.1v1.1H5.3z"/><path d="M6.3 6.3h1.1v1.1H6.3zm2.2 0h1.1v1.1H8.5zm2.1 0h1.1v1.1h-1.1zm2.1 0h1.1v1.1h-1.1zm2.1 0h1.1v1.1h-1.1zm2.1 0H18v1.1h-1.1zm2.1 0h1.1v1.1H19zm1.1 0h1.1v1.1h-1.1z"/><path d="M21.2 6.3h1.1v1.1h-1.1z"/><path d="M22.2 6.3h1.1v1.1h-1.1zm1.1 0h1.1v1.1h-1.1z"/><path d="M24.3 6.3h1.1v1.1h-1.1z"/><path d="M25.4 6.3h1.1v1.1h-1.1zM9.5 7.4h1.1v1.1H9.5zm2.1 0h1.1v1.1h-1.1zm1.1 0h1.1v1.1h-1.1zm2.1 0h1.1v1.1h-1.1zM0 8.5h1.1v1.1H0zm1.1 0h1.1v1.1H1.1z"/><path d="M2.1 8.5h1.1v1.1H2.1zm1.1 0h1.1v1.1H3.2zm3.1 0h1.1v1.1H6.3zm2.2 0h1.1v1.1H8.5zm4.2 0h1.1v1.1h-1.1zm2.1 0h1.1v1.1h-1.1zm2.1 0H18v1.1h-1.1zm1.1 0h1.1v1.1H18zm3.2 0h1.1v1.1h-1.1z"/><path d="M22.2 8.5h1.1v1.1h-1.1zm1.1 0h1.1v1.1h-1.1zm2.1 0h1.1v1.1h-1.1zm-23.3 1h1.1v1.1H2.1zm1.1 0h1.1v1.1H3.2zm4.2 0h1.1v1.1H7.4zm2.1 0h1.1v1.1H9.5zm2.1 0h1.1v1.1h-1.1zm3.2 0h1.1v1.1h-1.1zm2.1 0H18v1.1h-1.1zm1.1 0h1.1v1.1H18zm2.1 0h1.1v1.1h-1.1z"/><path d="M24.3 9.5h1.1v1.1h-1.1zM0 10.6h1.1v1.1H0zm2.1 0h1.1v1.1H2.1zm1.1 0h1.1v1.1H3.2zm2.1 0h1.1v1.1H5.3z"/><path d="M6.3 10.6h1.1v1.1H6.3zm1.1 0h1.1v1.1H7.4zm1.1 0h1.1v1.1H8.5zm3.1 0h1.1v1.1h-1.1zm1.1 0h1.1v1.1h-1.1zm1.1 0h1.1v1.1h-1.1z"/><path d="M14.8 10.6h1.1v1.1h-1.1zm5.3 0h1.1v1.1h-1.1zm-18 1h1.1v1.1H2.1zm1.1 0h1.1v1.1H3.2z"/><path d="M4.2 11.6h1.1v1.1H4.2zm7.4 0h1.1v1.1h-1.1zm2.2 0h1.1v1.1h-1.1z"/><path d="M14.8 11.6h1.1v1.1h-1.1zm3.2 0h1.1v1.1H18z"/><path d="M19 11.6h1.1v1.1H19zm3.2 0h1.1v1.1h-1.1zm1.1 0h1.1v1.1h-1.1zM2.1 12.7h1.1v1.1H2.1zm4.2 0h1.1v1.1H6.3zm1.1 0h1.1v1.1H7.4zm2.1 0h1.1v1.1H9.5zm4.3 0h1.1v1.1h-1.1z"/><path d="M14.8 12.7h1.1v1.1h-1.1zm1.1 0H17v1.1h-1.1zm2.1 0h1.1v1.1H18z"/><path d="M19 12.7h1.1v1.1H19zm1.1 0h1.1v1.1h-1.1z"/><path d="M21.2 12.7h1.1v1.1h-1.1zm2.1 0h1.1v1.1h-1.1z"/><path d="M24.3 12.7h1.1v1.1h-1.1z"/><path d="M25.4 12.7h1.1v1.1h-1.1zM1.1 13.8h1.1v1.1H1.1zm2.1 0h1.1v1.1H3.2zm5.3 0h1.1v1.1H8.5z"/><path d="M9.5 13.8h1.1v1.1H9.5zm1.1 0h1.1v1.1h-1.1zm2.1 0h1.1v1.1h-1.1zm1.1 0h1.1v1.1h-1.1z"/><path d="M14.8 13.8h1.1v1.1h-1.1zm1.1 0H17v1.1h-1.1z"/><path d="M16.9 13.8H18v1.1h-1.1zm2.1 0h1.1v1.1H19zm1.1 0h1.1v1.1h-1.1z"/><path d="M21.2 13.8h1.1v1.1h-1.1zm4.2 0h1.1v1.1h-1.1zm-24.3 1h1.1v1.1H1.1z"/><path d="M2.1 14.8h1.1v1.1H2.1zm1.1 0h1.1v1.1H3.2z"/><path d="M4.2 14.8h1.1v1.1H4.2zm2.1 0h1.1v1.1H6.3zm1.1 0h1.1v1.1H7.4zm1.1 0h1.1v1.1H8.5zm2.1 0h1.1v1.1h-1.1zm2.1 0h1.1v1.1h-1.1zm1.1 0h1.1v1.1h-1.1zm4.2 0h1.1v1.1H18zm3.2 0h1.1v1.1h-1.1zm2.1 0h1.1v1.1h-1.1z"/><path d="M24.3 14.8h1.1v1.1h-1.1zM0 15.9h1.1V17H0zm5.3 0h1.1V17H5.3zm2.1 0h1.1V17H7.4zm3.2 0h1.1V17h-1.1zm4.2 0h1.1V17h-1.1zm2.1 0H18V17h-1.1zm1.1 0h1.1V17H18zm2.1 0h1.1V17h-1.1z"/><path d="M21.2 15.9h1.1V17h-1.1zm4.2 0h1.1V17h-1.1zm-22.2 1h1.1V18H3.2zm3.1 0h1.1V18H6.3zm1.1 0h1.1V18H7.4zm3.2 0h1.1V18h-1.1z"/><path d="M11.6 16.9h1.1V18h-1.1zm2.2 0h1.1V18h-1.1z"/><path d="M14.8 16.9h1.1V18h-1.1zm1.1 0H17V18h-1.1z"/><path d="M16.9 16.9H18V18h-1.1zm1.1 0h1.1V18H18z"/><path d="M19 16.9h1.1V18H19zm1.1 0h1.1V18h-1.1z"/><path d="M21.2 16.9h1.1V18h-1.1z"/><path d="M22.2 16.9h1.1V18h-1.1zm1.1 0h1.1V18h-1.1z"/><path d="M24.3 16.9h1.1V18h-1.1z"/><path d="M25.4 16.9h1.1V18h-1.1zM8.5 18h1.1v1.1H8.5z"/><path d="M9.5 18h1.1v1.1H9.5zm2.1 0h1.1v1.1h-1.1zm1.1 0h1.1v1.1h-1.1zm4.2 0H18v1.1h-1.1zm4.3 0h1.1v1.1h-1.1zm2.1 0h1.1v1.1h-1.1zm2.1 0h1.1v1.1h-1.1zM0 19h1.1v1.1H0zm1.1 0h1.1v1.1H1.1z"/><path d="M2.1 19h1.1v1.1H2.1zm1.1 0h1.1v1.1H3.2z"/><path d="M4.2 19h1.1v1.1H4.2z"/><path d="M5.3 19h1.1v1.1H5.3z"/><path d="M6.3 19h1.1v1.1H6.3zm3.2 0h1.1v1.1H9.5zm1.1 0h1.1v1.1h-1.1zm3.2 0h1.1v1.1h-1.1z"/><path d="M14.8 19h1.1v1.1h-1.1zm2.1 0H18v1.1h-1.1zm2.1 0h1.1v1.1H19zm2.2 0h1.1v1.1h-1.1zm2.1 0h1.1v1.1h-1.1z"/><path d="M24.3 19h1.1v1.1h-1.1z"/><path d="M25.4 19h1.1v1.1h-1.1zM0 20.1h1.1v1.1H0zm6.3 0h1.1v1.1H6.3zm3.2 0h1.1v1.1H9.5zm2.1 0h1.1v1.1h-1.1zm1.1 0h1.1v1.1h-1.1zm3.2 0H17v1.1h-1.1z"/><path d="M16.9 20.1H18v1.1h-1.1zm4.3 0h1.1v1.1h-1.1zm3.1 0h1.1v1.1h-1.1z"/><path d="M25.4 20.1h1.1v1.1h-1.1zM0 21.2h1.1v1.1H0zm2.1 0h1.1v1.1H2.1zm1.1 0h1.1v1.1H3.2z"/><path d="M4.2 21.2h1.1v1.1H4.2zm2.1 0h1.1v1.1H6.3zm3.2 0h1.1v1.1H9.5zm1.1 0h1.1v1.1h-1.1z"/><path d="M11.6 21.2h1.1v1.1h-1.1zm3.2 0h1.1v1.1h-1.1zm2.1 0H18v1.1h-1.1zm1.1 0h1.1v1.1H18z"/><path d="M19 21.2h1.1v1.1H19zm1.1 0h1.1v1.1h-1.1z"/><path d="M21.2 21.2h1.1v1.1h-1.1z"/><path d="M22.2 21.2h1.1v1.1h-1.1zm2.1 0h1.1v1.1h-1.1z"/><path d="M25.4 21.2h1.1v1.1h-1.1zM0 22.2h1.1v1.1H0zm2.1 0h1.1v1.1H2.1zm1.1 0h1.1v1.1H3.2z"/><path d="M4.2 22.2h1.1v1.1H4.2zm2.1 0h1.1v1.1H6.3zm2.2 0h1.1v1.1H8.5z"/><path d="M9.5 22.2h1.1v1.1H9.5zm2.1 0h1.1v1.1h-1.1zm2.2 0h1.1v1.1h-1.1zm2.1 0H17v1.1h-1.1z"/><path d="M16.9 22.2H18v1.1h-1.1zm2.1 0h1.1v1.1H19zm2.2 0h1.1v1.1h-1.1z"/><path d="M22.2 22.2h1.1v1.1h-1.1zm1.1 0h1.1v1.1h-1.1z"/><path d="M24.3 22.2h1.1v1.1h-1.1z"/><path d="M25.4 22.2h1.1v1.1h-1.1zM0 23.3h1.1v1.1H0zm2.1 0h1.1v1.1H2.1zm1.1 0h1.1v1.1H3.2z"/><path d="M4.2 23.3h1.1v1.1H4.2zm2.1 0h1.1v1.1H6.3zm2.2 0h1.1v1.1H8.5zm3.1 0h1.1v1.1h-1.1zm1.1 0h1.1v1.1h-1.1zm1.1 0h1.1v1.1h-1.1zm2.1 0H17v1.1h-1.1zm2.1 0h1.1v1.1H18z"/><path d="M19 23.3h1.1v1.1H19zm2.2 0h1.1v1.1h-1.1zm2.1 0h1.1v1.1h-1.1z"/><path d="M24.3 23.3h1.1v1.1h-1.1zM0 24.3h1.1v1.1H0zm6.3 0h1.1v1.1H6.3zm2.2 0h1.1v1.1H8.5z"/><path d="M9.5 24.3h1.1v1.1H9.5zm1.1 0h1.1v1.1h-1.1zm3.2 0h1.1v1.1h-1.1zm2.1 0H17v1.1h-1.1zm2.1 0h1.1v1.1H18z"/><path d="M19 24.3h1.1v1.1H19zm2.2 0h1.1v1.1h-1.1zm2.1 0h1.1v1.1h-1.1zM0 25.4h1.1v1.1H0zm1.1 0h1.1v1.1H1.1z"/><path d="M2.1 25.4h1.1v1.1H2.1zm1.1 0h1.1v1.1H3.2z"/><path d="M4.2 25.4h1.1v1.1H4.2z"/><path d="M5.3 25.4h1.1v1.1H5.3z"/><path d="M6.3 25.4h1.1v1.1H6.3zm2.2 0h1.1v1.1H8.5zm2.1 0h1.1v1.1h-1.1zm2.1 0h1.1v1.1h-1.1zm1.1 0h1.1v1.1h-1.1z"/><path d="M14.8 25.4h1.1v1.1h-1.1zm5.3 0h1.1v1.1h-1.1z"/><path d="M21.2 25.4h1.1v1.1h-1.1z"/><path d="M22.2 25.4h1.1v1.1h-1.1zm1.1 0h1.1v1.1h-1.1z"/><path d="M24.3 25.4h1.1v1.1h-1.1z"/><path d="M25.4 25.4h1.1v1.1h-1.1z"/></g></svg>